<svg xmlns="http://www.w3.org/2000/svg" xmlns:v="https://svgstorm.com"
viewBox = "0 0 128 128"
width="128"
height="128">
<g fill="None" fill-opacity="0.0" stroke="#000000" stroke-opacity="0.05" stroke-width="0.3"><path d="
M 0.00 45.00 
C 0.50 45.00 1.00 45.00 1.00 45.00
C 2.13 33.02 8.26 24.19 18.00 14.00
C 23.62 17.48 13.89 24.37 11.61 28.75 C 9.33 33.14 5.48 38.37 4.00 45.00
C 7.13 45.26 7.90 41.94 11.00 44.00
C 12.80 26.16 38.40 8.48 54.00 24.00
C 61.56 17.48 74.11 16.11 84.75 22.59 C 95.40 29.06 92.71 41.22 105.00 45.00
C 102.05 35.27 99.85 29.03 93.29 21.70 C 86.73 14.36 80.02 10.09 72.75 7.20 C 65.48 4.31 52.42 2.87 44.75 4.20 C 37.09 5.53 30.36 13.25 23.00 11.00
C 29.89 4.42 35.96 3.08 46.00 1.00
C 46.16 0.94 46.00 0.00 46.00 0.00
L 0.00 0.00
L 0.00 45.00 Z"/>
</g>
<g fill="None" fill-opacity="0.0" stroke="#000000" stroke-opacity="0.57" stroke-width="0.3"><path d="
M 46.00 1.00 
C 47.91 0.83 50.91 1.84 52.00 0.00
L 46.00 0.00
C 46.00 0.00 46.16 0.94 46.00 1.00 Z"/>
</g>
<g fill="None" fill-opacity="0.0" stroke="#000000" stroke-opacity="0.88" stroke-width="0.3"><path d="
M 46.00 1.00 
C 35.96 3.08 29.89 4.42 23.00 11.00
C 30.36 13.25 37.09 5.53 44.75 4.20 C 52.42 2.87 65.48 4.31 72.75 7.20 C 80.02 10.09 86.73 14.36 93.29 21.70 C 99.85 29.03 102.05 35.27 105.00 45.00
C 92.71 41.22 95.40 29.06 84.75 22.59 C 74.11 16.11 61.56 17.48 54.00 24.00
C 38.40 8.48 12.80 26.16 11.00 44.00
C 7.90 41.94 7.13 45.26 4.00 45.00
C 5.48 38.37 9.33 33.14 11.61 28.75 C 13.89 24.37 23.62 17.48 18.00 14.00
C 8.26 24.19 2.13 33.02 1.00 45.00
C 0.82 46.91 1.85 49.91 0.00 51.00
L 0.00 57.00
C 2.25 61.32 5.50 67.08 11.00 65.00
C 12.56 75.76 21.90 83.26 30.00 92.00
C 24.65 94.52 16.81 102.31 15.29 107.30 C 13.76 112.30 9.67 121.49 13.00 128.00
L 70.00 128.00
C 73.22 123.64 65.37 122.91 63.00 125.00
C 63.36 117.64 59.89 112.51 60.00 105.00
C 67.39 110.46 72.01 102.85 75.00 98.00
C 75.95 100.70 76.21 104.81 72.00 105.00
C 71.42 111.37 76.82 121.04 83.00 116.00
C 86.02 121.69 92.07 118.61 93.00 125.00
C 87.72 124.47 81.85 126.14 77.00 124.00
C 75.09 125.87 76.90 126.71 78.00 128.00
L 105.00 128.00
C 105.65 124.76 108.47 124.70 108.00 121.00
C 111.44 121.54 113.81 119.14 117.00 116.00
C 118.02 118.80 120.77 116.54 123.00 118.00
C 124.97 114.86 125.54 112.41 128.00 111.00
L 128.00 106.00
C 126.71 105.12 126.30 102.46 124.00 103.00
C 126.84 100.30 126.67 95.69 124.00 93.00
C 127.08 93.69 126.31 89.91 128.00 89.00
L 128.00 86.00
C 126.42 82.59 124.39 81.68 123.00 78.00
C 120.32 79.03 117.94 77.89 115.00 79.00
C 112.89 75.80 111.69 73.93 108.00 75.00
C 109.35 72.07 106.47 70.70 106.00 68.00
C 103.64 68.59 99.12 68.51 97.00 67.00
C 105.01 65.89 111.46 58.30 109.21 48.77 C 106.97 39.24 106.06 33.55 102.20 26.75 C 98.34 19.95 90.53 12.78 83.75 8.81 C 76.96 4.84 70.76 0.97 61.00 1.00
C 59.71 0.87 57.51 1.65 57.00 0.00
L 52.00 0.00
C 50.91 1.84 47.91 0.83 46.00 1.00
M 56.00 29.00 
C 66.44 12.79 89.60 26.32 93.76 40.25 C 97.92 54.18 96.87 81.11 77.00 78.00
C 74.20 82.73 71.54 84.78 73.00 91.00
C 56.32 94.51 40.91 95.40 28.08 84.87 C 15.25 74.34 9.76 55.03 16.19 38.75 C 22.63 22.47 43.39 15.91 56.00 29.00
M 11.00 47.00 
C 9.93 51.98 8.68 57.65 11.00 62.00
C 1.47 62.33 1.26 46.75 11.00 47.00
M 106.00 52.00 
C 104.87 56.40 105.22 61.26 99.00 62.00
C 99.35 57.18 99.34 51.78 99.00 47.00
C 102.36 46.60 103.51 50.61 106.00 52.00
M 105.00 73.00 
C 102.87 80.65 112.17 76.13 114.00 83.00
C 116.89 82.15 118.44 82.81 121.00 81.00
C 122.72 83.44 122.32 86.08 125.00 87.00
C 123.83 89.87 122.54 89.78 120.00 91.00
C 122.22 95.21 122.81 100.50 120.00 105.00
C 122.39 105.33 122.62 106.26 125.00 107.00
C 123.84 110.03 122.62 110.68 122.00 114.00
C 118.83 113.03 117.96 113.14 115.00 112.00
C 113.74 119.02 102.72 115.07 105.00 123.00
C 100.97 127.27 93.80 123.82 95.00 118.00
C 91.37 117.71 87.27 116.37 85.00 112.00
C 82.10 112.69 81.45 113.67 78.00 114.00
C 79.53 111.83 75.48 110.08 76.00 107.00
C 83.22 104.49 75.89 96.71 80.00 91.00
C 74.52 89.20 76.49 83.69 80.00 81.00
C 81.34 83.79 83.71 81.56 86.00 83.00
C 87.12 76.24 97.16 80.92 95.00 73.00
C 97.88 70.49 102.04 70.50 105.00 73.00
M 39.00 106.00 
C 42.61 106.38 45.47 106.72 49.00 106.00
C 48.95 113.21 45.74 118.32 46.00 125.00
C 40.67 125.00 35.33 125.00 30.00 125.00
C 30.54 119.39 28.84 113.18 31.00 108.00
C 26.96 105.80 25.76 108.94 27.00 113.00
C 23.67 113.00 20.33 113.00 17.00 113.00
C 20.54 104.82 25.04 99.38 32.00 94.00
C 34.99 98.24 37.78 100.97 39.00 106.00
M 51.00 97.00 
C 51.60 99.43 46.59 99.37 49.00 102.00
C 46.79 104.33 44.12 101.47 42.00 103.00
C 40.84 100.13 38.49 97.29 37.00 94.00
C 42.04 95.85 45.73 97.49 51.00 97.00
M 71.00 97.00 
C 68.80 100.45 67.87 103.89 62.00 103.00
C 61.25 100.34 58.75 99.70 58.00 97.00
C 63.24 97.72 66.42 94.12 71.00 97.00
M 52.00 108.00 
C 53.39 104.82 51.77 101.69 54.00 99.00
C 58.62 100.88 58.57 109.56 52.00 108.00
M 60.00 125.00 
C 56.33 125.00 52.67 125.00 49.00 125.00
C 50.41 120.21 51.20 116.32 52.00 111.00
C 60.96 110.31 57.01 120.15 60.00 125.00
M 27.00 116.00 
C 27.00 119.00 27.00 122.00 27.00 125.00
C 23.00 125.00 19.00 125.00 15.00 125.00
C 15.11 121.01 16.59 119.62 16.00 116.00
C 19.67 116.00 23.33 116.00 27.00 116.00 Z"/>
</g>
<g fill="None" fill-opacity="0.0" stroke="#000000" stroke-opacity="0.71" stroke-width="0.3"><path d="
M 61.00 1.00 
C 60.89 0.98 61.00 0.00 61.00 0.00
L 57.00 0.00
C 57.51 1.65 59.71 0.87 61.00 1.00 Z"/>
</g>
<g fill="None" fill-opacity="0.0" stroke="#000000" stroke-opacity="0.02" stroke-width="0.3"><path d="
M 61.00 1.00 
C 70.76 0.97 76.96 4.84 83.75 8.81 C 90.53 12.78 98.34 19.95 102.20 26.75 C 106.06 33.55 106.97 39.24 109.21 48.77 C 111.46 58.30 105.01 65.89 97.00 67.00
C 99.12 68.51 103.64 68.59 106.00 68.00
C 106.47 70.70 109.35 72.07 108.00 75.00
C 111.69 73.93 112.89 75.80 115.00 79.00
C 117.94 77.89 120.32 79.03 123.00 78.00
C 124.39 81.68 126.42 82.59 128.00 86.00
L 128.00 0.00
L 61.00 0.00
C 61.00 0.00 60.89 0.98 61.00 1.00 Z"/>
</g>
<g fill="None" fill-opacity="0.0" stroke="#000000" stroke-opacity="0.02" stroke-width="0.3"><path d="
M 56.00 29.00 
C 43.39 15.91 22.63 22.47 16.19 38.75 C 9.76 55.03 15.25 74.34 28.08 84.87 C 40.91 95.40 56.32 94.51 73.00 91.00
C 71.54 84.78 74.20 82.73 77.00 78.00
C 96.87 81.11 97.92 54.18 93.76 40.25 C 89.60 26.32 66.44 12.79 56.00 29.00
M 38.00 45.00 
C 36.97 47.42 37.10 49.52 38.00 52.00
C 34.22 53.24 33.46 50.02 34.00 47.00
C 34.26 45.37 35.38 44.54 38.00 45.00
M 75.00 45.00 
C 75.63 47.16 75.60 49.77 75.00 52.00
C 70.17 52.86 70.02 44.19 75.00 45.00
M 63.00 50.00 
C 63.42 58.13 58.26 61.80 51.00 61.00
C 47.11 56.30 45.06 52.15 49.00 47.00
C 54.94 47.15 58.76 45.93 63.00 50.00 Z"/>
</g>
<g fill="None" fill-opacity="0.0" stroke="#000000" stroke-opacity="0.54" stroke-width="0.3"><path d="
M 0.00 51.00 
C 1.85 49.91 0.82 46.91 1.00 45.00
C 1.00 45.00 0.50 45.00 0.00 45.00
L 0.00 51.00 Z"/>
</g>
<g fill="None" fill-opacity="0.0" stroke="#000000" stroke-opacity="0.78" stroke-width="0.3"><path d="
M 38.00 45.00 
C 35.38 44.54 34.26 45.37 34.00 47.00
C 33.46 50.02 34.22 53.24 38.00 52.00
C 37.10 49.52 36.97 47.42 38.00 45.00 Z"/>
</g>
<g fill="None" fill-opacity="0.0" stroke="#000000" stroke-opacity="0.79" stroke-width="0.3"><path d="
M 75.00 45.00 
C 70.02 44.19 70.17 52.86 75.00 52.00
C 75.60 49.77 75.63 47.16 75.00 45.00 Z"/>
</g>
<g fill="None" fill-opacity="0.0" stroke="#000000" stroke-opacity="0.86" stroke-width="0.3"><path d="
M 63.00 50.00 
C 58.76 45.93 54.94 47.15 49.00 47.00
C 45.06 52.15 47.11 56.30 51.00 61.00
C 58.26 61.80 63.42 58.13 63.00 50.00
M 58.00 50.00 
C 60.28 53.45 56.99 54.79 56.00 58.00
C 52.47 58.09 51.25 54.31 50.00 51.00
C 52.25 49.59 55.57 52.34 58.00 50.00 Z"/>
</g>
<g fill="None" fill-opacity="0.0" stroke="#000000" stroke-opacity="0.15" stroke-width="0.3"><path d="
M 11.00 47.00 
C 1.26 46.75 1.47 62.33 11.00 62.00
C 8.68 57.65 9.93 51.98 11.00 47.00 Z"/>
</g>
<g fill="None" fill-opacity="0.0" stroke="#000000" stroke-opacity="0.15" stroke-width="0.3"><path d="
M 106.00 52.00 
C 103.51 50.61 102.36 46.60 99.00 47.00
C 99.34 51.78 99.35 57.18 99.00 62.00
C 105.22 61.26 104.87 56.40 106.00 52.00 Z"/>
</g>
<g fill="None" fill-opacity="0.0" stroke="#000000" stroke-opacity="0.13" stroke-width="0.3"><path d="
M 58.00 50.00 
C 55.57 52.34 52.25 49.59 50.00 51.00
C 51.25 54.31 52.47 58.09 56.00 58.00
C 56.99 54.79 60.28 53.45 58.00 50.00 Z"/>
</g>
<g fill="None" fill-opacity="0.0" stroke="#000000" stroke-opacity="0.03" stroke-width="0.3"><path d="
M 0.00 128.00 
L 13.00 128.00
C 9.67 121.49 13.76 112.30 15.29 107.30 C 16.81 102.31 24.65 94.52 30.00 92.00
C 21.90 83.26 12.56 75.76 11.00 65.00
C 5.50 67.08 2.25 61.32 0.00 57.00
L 0.00 128.00 Z"/>
</g>
<g fill="None" fill-opacity="0.0" stroke="#000000" stroke-opacity="0.07" stroke-width="0.3"><path d="
M 105.00 73.00 
C 102.04 70.50 97.88 70.49 95.00 73.00
C 97.16 80.92 87.12 76.24 86.00 83.00
C 83.71 81.56 81.34 83.79 80.00 81.00
C 76.49 83.69 74.52 89.20 80.00 91.00
C 75.89 96.71 83.22 104.49 76.00 107.00
C 75.48 110.08 79.53 111.83 78.00 114.00
C 81.45 113.67 82.10 112.69 85.00 112.00
C 87.27 116.37 91.37 117.71 95.00 118.00
C 93.80 123.82 100.97 127.27 105.00 123.00
C 102.72 115.07 113.74 119.02 115.00 112.00
C 117.96 113.14 118.83 113.03 122.00 114.00
C 122.62 110.68 123.84 110.03 125.00 107.00
C 122.62 106.26 122.39 105.33 120.00 105.00
C 122.81 100.50 122.22 95.21 120.00 91.00
C 122.54 89.78 123.83 89.87 125.00 87.00
C 122.32 86.08 122.72 83.44 121.00 81.00
C 118.44 82.81 116.89 82.15 114.00 83.00
C 112.17 76.13 102.87 80.65 105.00 73.00
M 96.00 85.00 
C 112.18 80.44 119.08 105.34 103.70 110.71 C 88.32 116.08 80.34 89.41 96.00 85.00 Z"/>
</g>
<g fill="None" fill-opacity="0.0" stroke="#000000" stroke-opacity="0.86" stroke-width="0.3"><path d="
M 96.00 85.00 
C 80.34 89.41 88.32 116.08 103.70 110.71 C 119.08 105.34 112.18 80.44 96.00 85.00
M 102.00 88.00 
C 105.79 89.99 111.21 95.46 108.81 101.25 C 106.40 107.04 101.91 106.17 96.00 107.00
C 94.94 104.97 93.87 101.83 91.00 102.00
C 90.36 93.65 93.25 89.91 102.00 88.00 Z"/>
</g>
<g fill="None" fill-opacity="0.0" stroke="#000000" stroke-opacity="0.06" stroke-width="0.3"><path d="
M 102.00 88.00 
C 93.25 89.91 90.36 93.65 91.00 102.00
C 93.87 101.83 94.94 104.97 96.00 107.00
C 101.91 106.17 106.40 107.04 108.81 101.25 C 111.21 95.46 105.79 89.99 102.00 88.00 Z"/>
</g>
<g fill="None" fill-opacity="0.0" stroke="#000000" stroke-opacity="0.09" stroke-width="0.3"><path d="
M 128.00 106.00 
L 128.00 89.00
C 126.31 89.91 127.08 93.69 124.00 93.00
C 126.67 95.69 126.84 100.30 124.00 103.00
C 126.30 102.46 126.71 105.12 128.00 106.00 Z"/>
</g>
<g fill="None" fill-opacity="0.0" stroke="#000000" stroke-opacity="0.07" stroke-width="0.3"><path d="
M 39.00 106.00 
C 37.78 100.97 34.99 98.24 32.00 94.00
C 25.04 99.38 20.54 104.82 17.00 113.00
C 20.33 113.00 23.67 113.00 27.00 113.00
C 25.76 108.94 26.96 105.80 31.00 108.00
C 28.84 113.18 30.54 119.39 30.00 125.00
C 35.33 125.00 40.67 125.00 46.00 125.00
C 45.74 118.32 48.95 113.21 49.00 106.00
C 45.47 106.72 42.61 106.38 39.00 106.00 Z"/>
</g>
<g fill="None" fill-opacity="0.0" stroke="#000000" stroke-opacity="0.16" stroke-width="0.3"><path d="
M 51.00 97.00 
C 45.73 97.49 42.04 95.85 37.00 94.00
C 38.49 97.29 40.84 100.13 42.00 103.00
C 44.12 101.47 46.79 104.33 49.00 102.00
C 46.59 99.37 51.60 99.43 51.00 97.00 Z"/>
</g>
<g fill="None" fill-opacity="0.0" stroke="#000000" stroke-opacity="0.15" stroke-width="0.3"><path d="
M 71.00 97.00 
C 66.42 94.12 63.24 97.72 58.00 97.00
C 58.75 99.70 61.25 100.34 62.00 103.00
C 67.87 103.89 68.80 100.45 71.00 97.00 Z"/>
</g>
<g fill="None" fill-opacity="0.0" stroke="#000000" stroke-opacity="0.09" stroke-width="0.3"><path d="
M 70.00 128.00 
L 78.00 128.00
C 76.90 126.71 75.09 125.87 77.00 124.00
C 81.85 126.14 87.72 124.47 93.00 125.00
C 92.07 118.61 86.02 121.69 83.00 116.00
C 76.82 121.04 71.42 111.37 72.00 105.00
C 76.21 104.81 75.95 100.70 75.00 98.00
C 72.01 102.85 67.39 110.46 60.00 105.00
C 59.89 112.51 63.36 117.64 63.00 125.00
C 65.37 122.91 73.22 123.64 70.00 128.00 Z"/>
</g>
<g fill="None" fill-opacity="0.0" stroke="#000000" stroke-opacity="0.22" stroke-width="0.3"><path d="
M 52.00 108.00 
C 58.57 109.56 58.62 100.88 54.00 99.00
C 51.77 101.69 53.39 104.82 52.00 108.00 Z"/>
</g>
<g fill="None" fill-opacity="0.0" stroke="#000000" stroke-opacity="0.15" stroke-width="0.3"><path d="
M 60.00 125.00 
C 57.01 120.15 60.96 110.31 52.00 111.00
C 51.20 116.32 50.41 120.21 49.00 125.00
C 52.67 125.00 56.33 125.00 60.00 125.00 Z"/>
</g>
<g fill="None" fill-opacity="0.0" stroke="#000000" stroke-opacity="0.05" stroke-width="0.3"><path d="
M 105.00 128.00 
L 128.00 128.00
L 128.00 111.00
C 125.54 112.41 124.97 114.86 123.00 118.00
C 120.77 116.54 118.02 118.80 117.00 116.00
C 113.81 119.14 111.44 121.54 108.00 121.00
C 108.47 124.70 105.65 124.76 105.00 128.00 Z"/>
</g>
<g fill="None" fill-opacity="0.0" stroke="#000000" stroke-opacity="0.23" stroke-width="0.3"><path d="
M 27.00 116.00 
C 23.33 116.00 19.67 116.00 16.00 116.00
C 16.59 119.62 15.11 121.01 15.00 125.00
C 19.00 125.00 23.00 125.00 27.00 125.00
C 27.00 122.00 27.00 119.00 27.00 116.00 Z"/>
</g>
<g fill="#000000" fill-opacity="0.05" stroke="None">
<path d="
M 0.00 45.00 
C 0.50 45.00 1.00 45.00 1.00 45.00
C 2.13 33.02 8.26 24.19 18.00 14.00
C 23.62 17.48 13.89 24.37 11.61 28.75 C 9.33 33.14 5.48 38.37 4.00 45.00
C 7.13 45.26 7.90 41.94 11.00 44.00
C 12.80 26.16 38.40 8.48 54.00 24.00
C 61.56 17.48 74.11 16.11 84.75 22.59 C 95.40 29.06 92.71 41.22 105.00 45.00
C 102.05 35.27 99.85 29.03 93.29 21.70 C 86.73 14.36 80.02 10.09 72.75 7.20 C 65.48 4.31 52.42 2.87 44.75 4.20 C 37.09 5.53 30.36 13.25 23.00 11.00
C 29.89 4.42 35.96 3.08 46.00 1.00
C 46.16 0.94 46.00 0.00 46.00 0.00
L 0.00 0.00
L 0.00 45.00 Z"/>
</g>
<g fill="#000000" fill-opacity="0.57" stroke="None">
<path d="
M 46.00 1.00 
C 47.91 0.83 50.91 1.84 52.00 0.00
L 46.00 0.00
C 46.00 0.00 46.16 0.94 46.00 1.00 Z"/>
</g>
<g fill="#000000" fill-opacity="0.88" stroke="None">
<path d="
M 46.00 1.00 
C 35.96 3.08 29.89 4.42 23.00 11.00
C 30.36 13.25 37.09 5.53 44.75 4.20 C 52.42 2.87 65.48 4.31 72.75 7.20 C 80.02 10.09 86.73 14.36 93.29 21.70 C 99.85 29.03 102.05 35.27 105.00 45.00
C 92.71 41.22 95.40 29.06 84.75 22.59 C 74.11 16.11 61.56 17.48 54.00 24.00
C 38.40 8.48 12.80 26.16 11.00 44.00
C 7.90 41.94 7.13 45.26 4.00 45.00
C 5.48 38.37 9.33 33.14 11.61 28.75 C 13.89 24.37 23.62 17.48 18.00 14.00
C 8.26 24.19 2.13 33.02 1.00 45.00
C 0.82 46.91 1.85 49.91 0.00 51.00
L 0.00 57.00
C 2.25 61.32 5.50 67.08 11.00 65.00
C 12.56 75.76 21.90 83.26 30.00 92.00
C 24.65 94.52 16.81 102.31 15.29 107.30 C 13.76 112.30 9.67 121.49 13.00 128.00
L 70.00 128.00
C 73.22 123.64 65.37 122.91 63.00 125.00
C 63.36 117.64 59.89 112.51 60.00 105.00
C 67.39 110.46 72.01 102.85 75.00 98.00
C 75.95 100.70 76.21 104.81 72.00 105.00
C 71.42 111.37 76.82 121.04 83.00 116.00
C 86.02 121.69 92.07 118.61 93.00 125.00
C 87.72 124.47 81.85 126.14 77.00 124.00
C 75.09 125.87 76.90 126.71 78.00 128.00
L 105.00 128.00
C 105.65 124.76 108.47 124.70 108.00 121.00
C 111.44 121.54 113.81 119.14 117.00 116.00
C 118.02 118.80 120.77 116.54 123.00 118.00
C 124.97 114.86 125.54 112.41 128.00 111.00
L 128.00 106.00
C 126.71 105.12 126.30 102.46 124.00 103.00
C 126.84 100.30 126.67 95.69 124.00 93.00
C 127.08 93.69 126.31 89.91 128.00 89.00
L 128.00 86.00
C 126.42 82.59 124.39 81.68 123.00 78.00
C 120.32 79.03 117.94 77.89 115.00 79.00
C 112.89 75.80 111.69 73.93 108.00 75.00
C 109.35 72.07 106.47 70.70 106.00 68.00
C 103.64 68.59 99.12 68.51 97.00 67.00
C 105.01 65.89 111.46 58.30 109.21 48.77 C 106.97 39.24 106.06 33.55 102.20 26.75 C 98.34 19.95 90.53 12.78 83.75 8.81 C 76.96 4.84 70.76 0.97 61.00 1.00
C 59.71 0.87 57.51 1.65 57.00 0.00
L 52.00 0.00
C 50.91 1.84 47.91 0.83 46.00 1.00
M 56.00 29.00 
C 66.44 12.79 89.60 26.32 93.76 40.25 C 97.92 54.18 96.87 81.11 77.00 78.00
C 74.20 82.73 71.54 84.78 73.00 91.00
C 56.32 94.51 40.91 95.40 28.08 84.87 C 15.25 74.34 9.76 55.03 16.19 38.75 C 22.63 22.47 43.39 15.91 56.00 29.00
M 11.00 47.00 
C 9.93 51.98 8.68 57.65 11.00 62.00
C 1.47 62.33 1.26 46.75 11.00 47.00
M 106.00 52.00 
C 104.87 56.40 105.22 61.26 99.00 62.00
C 99.35 57.18 99.34 51.78 99.00 47.00
C 102.36 46.60 103.51 50.61 106.00 52.00
M 105.00 73.00 
C 102.87 80.65 112.17 76.13 114.00 83.00
C 116.89 82.15 118.44 82.81 121.00 81.00
C 122.72 83.44 122.32 86.08 125.00 87.00
C 123.83 89.87 122.54 89.78 120.00 91.00
C 122.22 95.21 122.81 100.50 120.00 105.00
C 122.39 105.33 122.62 106.26 125.00 107.00
C 123.84 110.03 122.62 110.68 122.00 114.00
C 118.83 113.03 117.96 113.14 115.00 112.00
C 113.74 119.02 102.72 115.07 105.00 123.00
C 100.97 127.27 93.80 123.82 95.00 118.00
C 91.37 117.71 87.27 116.37 85.00 112.00
C 82.10 112.69 81.45 113.67 78.00 114.00
C 79.53 111.83 75.48 110.08 76.00 107.00
C 83.22 104.49 75.89 96.71 80.00 91.00
C 74.52 89.20 76.49 83.69 80.00 81.00
C 81.34 83.79 83.71 81.56 86.00 83.00
C 87.12 76.24 97.16 80.92 95.00 73.00
C 97.88 70.49 102.04 70.50 105.00 73.00
M 39.00 106.00 
C 42.61 106.38 45.47 106.72 49.00 106.00
C 48.95 113.21 45.74 118.32 46.00 125.00
C 40.67 125.00 35.33 125.00 30.00 125.00
C 30.54 119.39 28.84 113.18 31.00 108.00
C 26.96 105.80 25.76 108.94 27.00 113.00
C 23.67 113.00 20.33 113.00 17.00 113.00
C 20.54 104.82 25.04 99.38 32.00 94.00
C 34.99 98.24 37.78 100.97 39.00 106.00
M 51.00 97.00 
C 51.60 99.43 46.59 99.37 49.00 102.00
C 46.79 104.33 44.12 101.47 42.00 103.00
C 40.84 100.13 38.49 97.29 37.00 94.00
C 42.04 95.85 45.73 97.49 51.00 97.00
M 71.00 97.00 
C 68.80 100.45 67.87 103.89 62.00 103.00
C 61.25 100.34 58.75 99.70 58.00 97.00
C 63.24 97.72 66.42 94.12 71.00 97.00
M 52.00 108.00 
C 53.39 104.82 51.77 101.69 54.00 99.00
C 58.62 100.88 58.57 109.56 52.00 108.00
M 60.00 125.00 
C 56.33 125.00 52.67 125.00 49.00 125.00
C 50.41 120.21 51.20 116.32 52.00 111.00
C 60.96 110.31 57.01 120.15 60.00 125.00
M 27.00 116.00 
C 27.00 119.00 27.00 122.00 27.00 125.00
C 23.00 125.00 19.00 125.00 15.00 125.00
C 15.11 121.01 16.59 119.62 16.00 116.00
C 19.67 116.00 23.33 116.00 27.00 116.00 Z"/>
</g>
<g fill="#000000" fill-opacity="0.71" stroke="None">
<path d="
M 61.00 1.00 
C 60.89 0.98 61.00 0.00 61.00 0.00
L 57.00 0.00
C 57.51 1.65 59.71 0.87 61.00 1.00 Z"/>
</g>
<g fill="#000000" fill-opacity="0.02" stroke="None">
<path d="
M 61.00 1.00 
C 70.76 0.97 76.96 4.84 83.75 8.81 C 90.53 12.78 98.34 19.95 102.20 26.75 C 106.06 33.55 106.97 39.24 109.21 48.77 C 111.46 58.30 105.01 65.89 97.00 67.00
C 99.12 68.51 103.64 68.59 106.00 68.00
C 106.47 70.70 109.35 72.07 108.00 75.00
C 111.69 73.93 112.89 75.80 115.00 79.00
C 117.94 77.89 120.32 79.03 123.00 78.00
C 124.39 81.68 126.42 82.59 128.00 86.00
L 128.00 0.00
L 61.00 0.00
C 61.00 0.00 60.89 0.98 61.00 1.00 Z"/>
</g>
<g fill="#000000" fill-opacity="0.02" stroke="None">
<path d="
M 56.00 29.00 
C 43.39 15.91 22.63 22.47 16.19 38.75 C 9.76 55.03 15.25 74.34 28.08 84.87 C 40.91 95.40 56.32 94.51 73.00 91.00
C 71.54 84.78 74.20 82.73 77.00 78.00
C 96.87 81.11 97.92 54.18 93.76 40.25 C 89.60 26.32 66.44 12.79 56.00 29.00
M 38.00 45.00 
C 36.97 47.42 37.10 49.52 38.00 52.00
C 34.22 53.24 33.46 50.02 34.00 47.00
C 34.26 45.37 35.38 44.54 38.00 45.00
M 75.00 45.00 
C 75.63 47.16 75.60 49.77 75.00 52.00
C 70.17 52.86 70.02 44.19 75.00 45.00
M 63.00 50.00 
C 63.42 58.13 58.26 61.80 51.00 61.00
C 47.11 56.30 45.06 52.15 49.00 47.00
C 54.94 47.15 58.76 45.93 63.00 50.00 Z"/>
</g>
<g fill="#000000" fill-opacity="0.54" stroke="None">
<path d="
M 0.00 51.00 
C 1.85 49.91 0.82 46.91 1.00 45.00
C 1.00 45.00 0.50 45.00 0.00 45.00
L 0.00 51.00 Z"/>
</g>
<g fill="#000000" fill-opacity="0.78" stroke="None">
<path d="
M 38.00 45.00 
C 35.38 44.54 34.26 45.37 34.00 47.00
C 33.46 50.02 34.22 53.24 38.00 52.00
C 37.10 49.52 36.97 47.42 38.00 45.00 Z"/>
</g>
<g fill="#000000" fill-opacity="0.79" stroke="None">
<path d="
M 75.00 45.00 
C 70.02 44.19 70.17 52.86 75.00 52.00
C 75.60 49.77 75.63 47.16 75.00 45.00 Z"/>
</g>
<g fill="#000000" fill-opacity="0.86" stroke="None">
<path d="
M 63.00 50.00 
C 58.76 45.93 54.94 47.15 49.00 47.00
C 45.06 52.15 47.11 56.30 51.00 61.00
C 58.26 61.80 63.42 58.13 63.00 50.00
M 58.00 50.00 
C 60.28 53.45 56.99 54.79 56.00 58.00
C 52.47 58.09 51.25 54.31 50.00 51.00
C 52.25 49.59 55.57 52.34 58.00 50.00 Z"/>
</g>
<g fill="#000000" fill-opacity="0.15" stroke="None">
<path d="
M 11.00 47.00 
C 1.26 46.75 1.47 62.33 11.00 62.00
C 8.68 57.65 9.93 51.98 11.00 47.00 Z"/>
</g>
<g fill="#000000" fill-opacity="0.15" stroke="None">
<path d="
M 106.00 52.00 
C 103.51 50.61 102.36 46.60 99.00 47.00
C 99.34 51.78 99.35 57.18 99.00 62.00
C 105.22 61.26 104.87 56.40 106.00 52.00 Z"/>
</g>
<g fill="#000000" fill-opacity="0.13" stroke="None">
<path d="
M 58.00 50.00 
C 55.57 52.34 52.25 49.59 50.00 51.00
C 51.25 54.31 52.47 58.09 56.00 58.00
C 56.99 54.79 60.28 53.45 58.00 50.00 Z"/>
</g>
<g fill="#000000" fill-opacity="0.03" stroke="None">
<path d="
M 0.00 128.00 
L 13.00 128.00
C 9.67 121.49 13.76 112.30 15.29 107.30 C 16.81 102.31 24.65 94.52 30.00 92.00
C 21.90 83.26 12.56 75.76 11.00 65.00
C 5.50 67.08 2.25 61.32 0.00 57.00
L 0.00 128.00 Z"/>
</g>
<g fill="#000000" fill-opacity="0.07" stroke="None">
<path d="
M 105.00 73.00 
C 102.04 70.50 97.88 70.49 95.00 73.00
C 97.16 80.92 87.12 76.24 86.00 83.00
C 83.71 81.56 81.34 83.79 80.00 81.00
C 76.49 83.69 74.52 89.20 80.00 91.00
C 75.89 96.71 83.22 104.49 76.00 107.00
C 75.48 110.08 79.53 111.83 78.00 114.00
C 81.45 113.67 82.10 112.69 85.00 112.00
C 87.27 116.37 91.37 117.71 95.00 118.00
C 93.80 123.82 100.97 127.27 105.00 123.00
C 102.72 115.07 113.74 119.02 115.00 112.00
C 117.96 113.14 118.83 113.03 122.00 114.00
C 122.62 110.68 123.84 110.03 125.00 107.00
C 122.62 106.26 122.39 105.33 120.00 105.00
C 122.81 100.50 122.22 95.21 120.00 91.00
C 122.54 89.78 123.83 89.87 125.00 87.00
C 122.32 86.08 122.72 83.44 121.00 81.00
C 118.44 82.81 116.89 82.15 114.00 83.00
C 112.17 76.13 102.87 80.65 105.00 73.00
M 96.00 85.00 
C 112.18 80.44 119.08 105.34 103.70 110.71 C 88.32 116.08 80.34 89.41 96.00 85.00 Z"/>
</g>
<g fill="#000000" fill-opacity="0.86" stroke="None">
<path d="
M 96.00 85.00 
C 80.34 89.41 88.32 116.08 103.70 110.71 C 119.08 105.34 112.18 80.44 96.00 85.00
M 102.00 88.00 
C 105.79 89.99 111.21 95.46 108.81 101.25 C 106.40 107.04 101.91 106.17 96.00 107.00
C 94.94 104.97 93.87 101.83 91.00 102.00
C 90.36 93.65 93.25 89.91 102.00 88.00 Z"/>
</g>
<g fill="#000000" fill-opacity="0.06" stroke="None">
<path d="
M 102.00 88.00 
C 93.25 89.91 90.36 93.65 91.00 102.00
C 93.87 101.83 94.94 104.97 96.00 107.00
C 101.91 106.17 106.40 107.04 108.81 101.25 C 111.21 95.46 105.79 89.99 102.00 88.00 Z"/>
</g>
<g fill="#000000" fill-opacity="0.09" stroke="None">
<path d="
M 128.00 106.00 
L 128.00 89.00
C 126.31 89.91 127.08 93.69 124.00 93.00
C 126.67 95.69 126.84 100.30 124.00 103.00
C 126.30 102.46 126.71 105.12 128.00 106.00 Z"/>
</g>
<g fill="#000000" fill-opacity="0.07" stroke="None">
<path d="
M 39.00 106.00 
C 37.78 100.97 34.99 98.24 32.00 94.00
C 25.04 99.38 20.54 104.82 17.00 113.00
C 20.33 113.00 23.67 113.00 27.00 113.00
C 25.76 108.94 26.96 105.80 31.00 108.00
C 28.84 113.18 30.54 119.39 30.00 125.00
C 35.33 125.00 40.67 125.00 46.00 125.00
C 45.74 118.32 48.95 113.21 49.00 106.00
C 45.47 106.72 42.61 106.38 39.00 106.00 Z"/>
</g>
<g fill="#000000" fill-opacity="0.16" stroke="None">
<path d="
M 51.00 97.00 
C 45.73 97.49 42.04 95.85 37.00 94.00
C 38.49 97.29 40.84 100.13 42.00 103.00
C 44.12 101.47 46.79 104.33 49.00 102.00
C 46.59 99.37 51.60 99.43 51.00 97.00 Z"/>
</g>
<g fill="#000000" fill-opacity="0.15" stroke="None">
<path d="
M 71.00 97.00 
C 66.42 94.12 63.24 97.72 58.00 97.00
C 58.75 99.70 61.25 100.34 62.00 103.00
C 67.87 103.89 68.80 100.45 71.00 97.00 Z"/>
</g>
<g fill="#000000" fill-opacity="0.09" stroke="None">
<path d="
M 70.00 128.00 
L 78.00 128.00
C 76.90 126.71 75.09 125.87 77.00 124.00
C 81.85 126.14 87.72 124.47 93.00 125.00
C 92.07 118.61 86.02 121.69 83.00 116.00
C 76.82 121.04 71.42 111.37 72.00 105.00
C 76.21 104.81 75.95 100.70 75.00 98.00
C 72.01 102.85 67.39 110.46 60.00 105.00
C 59.89 112.51 63.36 117.64 63.00 125.00
C 65.37 122.91 73.22 123.64 70.00 128.00 Z"/>
</g>
<g fill="#000000" fill-opacity="0.22" stroke="None">
<path d="
M 52.00 108.00 
C 58.57 109.56 58.62 100.88 54.00 99.00
C 51.77 101.69 53.39 104.82 52.00 108.00 Z"/>
</g>
<g fill="#000000" fill-opacity="0.15" stroke="None">
<path d="
M 60.00 125.00 
C 57.01 120.15 60.96 110.31 52.00 111.00
C 51.20 116.32 50.41 120.21 49.00 125.00
C 52.67 125.00 56.33 125.00 60.00 125.00 Z"/>
</g>
<g fill="#000000" fill-opacity="0.05" stroke="None">
<path d="
M 105.00 128.00 
L 128.00 128.00
L 128.00 111.00
C 125.54 112.41 124.97 114.86 123.00 118.00
C 120.77 116.54 118.02 118.80 117.00 116.00
C 113.81 119.14 111.44 121.54 108.00 121.00
C 108.47 124.70 105.65 124.76 105.00 128.00 Z"/>
</g>
<g fill="#000000" fill-opacity="0.23" stroke="None">
<path d="
M 27.00 116.00 
C 23.33 116.00 19.67 116.00 16.00 116.00
C 16.59 119.62 15.11 121.01 15.00 125.00
C 19.00 125.00 23.00 125.00 27.00 125.00
C 27.00 122.00 27.00 119.00 27.00 116.00 Z"/>
</g>
</svg>